<mxfile host="app.diagrams.net" modified="2021-12-29T15:26:50.234Z" agent="5.0 (Windows NT 10.0; Win64; x64) AppleWebKit/537.36 (KHTML, like Gecko) Chrome/96.0.4664.110 Safari/537.36" etag="LDO81x9WTrieeomuGQQC" version="16.1.0" type="github">
  <diagram id="OQ0EmM7Xb9CICZ_JNeIO" name="Page-1">
    <mxGraphModel dx="691" dy="347" grid="1" gridSize="10" guides="1" tooltips="1" connect="1" arrows="1" fold="1" page="0" pageScale="1" pageWidth="850" pageHeight="1100" math="0" shadow="0">
      <root>
        <mxCell id="0" />
        <mxCell id="1" parent="0" />
        <mxCell id="fT3AvStkklrtwL1eyzSW-9" value="" style="rounded=0;whiteSpace=wrap;html=1;fillColor=#dae8fc;strokeColor=#6c8ebf;" vertex="1" parent="1">
          <mxGeometry x="80" y="372" width="560" height="8" as="geometry" />
        </mxCell>
        <mxCell id="fT3AvStkklrtwL1eyzSW-2" value="" style="rounded=0;whiteSpace=wrap;html=1;fillColor=none;dashed=1;" vertex="1" parent="1">
          <mxGeometry x="880" y="320" width="293.43" height="260" as="geometry" />
        </mxCell>
        <mxCell id="7h7i-8I8U4jJSZl56zin-5" style="edgeStyle=orthogonalEdgeStyle;rounded=0;orthogonalLoop=1;jettySize=auto;html=1;fontSize=10;" parent="1" source="7h7i-8I8U4jJSZl56zin-2" target="7h7i-8I8U4jJSZl56zin-3" edge="1">
          <mxGeometry relative="1" as="geometry">
            <Array as="points">
              <mxPoint x="390" y="219" />
            </Array>
          </mxGeometry>
        </mxCell>
        <mxCell id="7h7i-8I8U4jJSZl56zin-9" style="edgeStyle=orthogonalEdgeStyle;rounded=0;orthogonalLoop=1;jettySize=auto;html=1;fontSize=10;" parent="1" source="7h7i-8I8U4jJSZl56zin-2" target="7h7i-8I8U4jJSZl56zin-7" edge="1">
          <mxGeometry relative="1" as="geometry">
            <Array as="points">
              <mxPoint x="390" y="269" />
            </Array>
          </mxGeometry>
        </mxCell>
        <mxCell id="7h7i-8I8U4jJSZl56zin-2" value="" style="aspect=fixed;html=1;points=[];align=center;image;fontSize=12;image=img/lib/azure2/general/Subscriptions.svg;" parent="1" vertex="1">
          <mxGeometry x="380" y="140" width="24.79" height="40" as="geometry" />
        </mxCell>
        <mxCell id="7h7i-8I8U4jJSZl56zin-3" value="&lt;br&gt;" style="aspect=fixed;html=1;points=[];align=center;image;fontSize=12;image=img/lib/azure2/general/Resource_Groups.svg;" parent="1" vertex="1">
          <mxGeometry x="425" y="200" width="40" height="37.65" as="geometry" />
        </mxCell>
        <mxCell id="7h7i-8I8U4jJSZl56zin-4" value="Subscription" style="text;html=1;strokeColor=none;fillColor=none;align=left;verticalAlign=middle;whiteSpace=wrap;rounded=0;fontSize=10;" parent="1" vertex="1">
          <mxGeometry x="404.78999999999996" y="150" width="70" height="20" as="geometry" />
        </mxCell>
        <mxCell id="7h7i-8I8U4jJSZl56zin-6" value="Resource Group" style="text;html=1;strokeColor=none;fillColor=none;align=left;verticalAlign=middle;whiteSpace=wrap;rounded=0;fontSize=10;" parent="1" vertex="1">
          <mxGeometry x="465" y="208.83" width="90" height="20" as="geometry" />
        </mxCell>
        <mxCell id="7h7i-8I8U4jJSZl56zin-7" value="&lt;br&gt;" style="aspect=fixed;html=1;points=[];align=center;image;fontSize=12;image=img/lib/azure2/general/Resource_Groups.svg;" parent="1" vertex="1">
          <mxGeometry x="425" y="250" width="40" height="37.65" as="geometry" />
        </mxCell>
        <mxCell id="7h7i-8I8U4jJSZl56zin-8" value="Resource Group" style="text;html=1;strokeColor=none;fillColor=none;align=left;verticalAlign=middle;whiteSpace=wrap;rounded=0;fontSize=10;" parent="1" vertex="1">
          <mxGeometry x="465" y="258.83000000000004" width="90" height="20" as="geometry" />
        </mxCell>
        <mxCell id="7h7i-8I8U4jJSZl56zin-13" style="edgeStyle=orthogonalEdgeStyle;rounded=0;orthogonalLoop=1;jettySize=auto;html=1;entryX=0.02;entryY=0.8;entryDx=0;entryDy=0;entryPerimeter=0;fontSize=10;" parent="1" source="7h7i-8I8U4jJSZl56zin-10" target="7h7i-8I8U4jJSZl56zin-12" edge="1">
          <mxGeometry relative="1" as="geometry">
            <Array as="points">
              <mxPoint x="240" y="88" />
            </Array>
          </mxGeometry>
        </mxCell>
        <mxCell id="7h7i-8I8U4jJSZl56zin-10" value="" style="aspect=fixed;html=1;points=[];align=center;image;fontSize=12;image=img/lib/azure2/identity/Azure_Active_Directory.svg;" parent="1" vertex="1">
          <mxGeometry x="220" y="140" width="40" height="36.57" as="geometry" />
        </mxCell>
        <mxCell id="7h7i-8I8U4jJSZl56zin-11" value="Azure AD" style="text;html=1;strokeColor=none;fillColor=none;align=left;verticalAlign=middle;whiteSpace=wrap;rounded=0;fontSize=10;" parent="1" vertex="1">
          <mxGeometry x="260" y="148.28" width="70" height="20" as="geometry" />
        </mxCell>
        <mxCell id="7h7i-8I8U4jJSZl56zin-14" style="edgeStyle=orthogonalEdgeStyle;rounded=0;orthogonalLoop=1;jettySize=auto;html=1;entryX=0.524;entryY=-0.075;entryDx=0;entryDy=0;entryPerimeter=0;fontSize=10;" parent="1" source="7h7i-8I8U4jJSZl56zin-12" target="7h7i-8I8U4jJSZl56zin-2" edge="1">
          <mxGeometry relative="1" as="geometry" />
        </mxCell>
        <mxCell id="7h7i-8I8U4jJSZl56zin-12" value="" style="verticalLabelPosition=bottom;html=1;verticalAlign=top;align=center;strokeColor=none;fillColor=#00BEF2;shape=mxgraph.azure.azure_subscription;fontSize=10;" parent="1" vertex="1">
          <mxGeometry x="300" y="60" width="50" height="35" as="geometry" />
        </mxCell>
        <mxCell id="7h7i-8I8U4jJSZl56zin-16" style="edgeStyle=orthogonalEdgeStyle;rounded=0;orthogonalLoop=1;jettySize=auto;html=1;fontSize=10;" parent="1" source="7h7i-8I8U4jJSZl56zin-15" target="7h7i-8I8U4jJSZl56zin-10" edge="1">
          <mxGeometry relative="1" as="geometry" />
        </mxCell>
        <mxCell id="7h7i-8I8U4jJSZl56zin-15" value="" style="aspect=fixed;html=1;points=[];align=center;image;fontSize=12;image=img/lib/azure2/identity/Users.svg;" parent="1" vertex="1">
          <mxGeometry x="140" y="138.28" width="36.57" height="40" as="geometry" />
        </mxCell>
        <mxCell id="fT3AvStkklrtwL1eyzSW-1" value="Virtual Network" style="aspect=fixed;html=1;points=[];align=center;image;fontSize=12;image=img/lib/azure2/networking/Virtual_Networks.svg;" vertex="1" parent="1">
          <mxGeometry x="550" y="520" width="50" height="29.85" as="geometry" />
        </mxCell>
        <mxCell id="fT3AvStkklrtwL1eyzSW-3" value="VM1" style="aspect=fixed;html=1;points=[];align=center;image;fontSize=12;image=img/lib/azure2/compute/Virtual_Machine.svg;dashed=1;fillColor=none;" vertex="1" parent="1">
          <mxGeometry x="157.39" y="730" width="50" height="46.38" as="geometry" />
        </mxCell>
        <mxCell id="fT3AvStkklrtwL1eyzSW-4" value="VM2" style="aspect=fixed;html=1;points=[];align=center;image;fontSize=12;image=img/lib/azure2/compute/Virtual_Machine.svg;dashed=1;fillColor=none;" vertex="1" parent="1">
          <mxGeometry x="247.39" y="730" width="50" height="46.38" as="geometry" />
        </mxCell>
        <mxCell id="fT3AvStkklrtwL1eyzSW-5" value="VM3" style="aspect=fixed;html=1;points=[];align=center;image;fontSize=12;image=img/lib/azure2/compute/Virtual_Machine.svg;dashed=1;fillColor=none;" vertex="1" parent="1">
          <mxGeometry x="337.39" y="730" width="50" height="46.38" as="geometry" />
        </mxCell>
        <mxCell id="fT3AvStkklrtwL1eyzSW-6" value="VM4" style="aspect=fixed;html=1;points=[];align=center;image;fontSize=12;image=img/lib/azure2/compute/Virtual_Machine.svg;dashed=1;fillColor=none;" vertex="1" parent="1">
          <mxGeometry x="424.78999999999996" y="730" width="50" height="46.38" as="geometry" />
        </mxCell>
        <mxCell id="fT3AvStkklrtwL1eyzSW-7" value="NSG1&lt;br&gt;" style="aspect=fixed;html=1;points=[];align=center;image;fontSize=12;image=img/lib/azure2/networking/Network_Security_Groups.svg;dashed=1;fillColor=none;" vertex="1" parent="1">
          <mxGeometry x="157.39000000000001" y="450" width="24.71" height="30" as="geometry" />
        </mxCell>
        <mxCell id="fT3AvStkklrtwL1eyzSW-8" value="Internet" style="sketch=0;aspect=fixed;pointerEvents=1;shadow=0;dashed=0;html=1;strokeColor=none;labelPosition=center;verticalLabelPosition=bottom;verticalAlign=top;align=center;fillColor=#00188D;shape=mxgraph.azure.cloud" vertex="1" parent="1">
          <mxGeometry x="337.39" y="360" width="50" height="32" as="geometry" />
        </mxCell>
      </root>
    </mxGraphModel>
  </diagram>
</mxfile>
